<svg width="20" height="19" viewBox="0 0 20 19" fill="none" xmlns="http://www.w3.org/2000/svg">
<path d="M1.25586 2.32227C1.35773 2.32227 1.06678 2.34638 0.764497 2.0441C0.462216 1.74181 0.486328 1.45087 0.486328 1.55273H4.48633C4.48633 0.834289 4.30536 -0.0718931 3.59292 -0.784331C2.88049 -1.49677 1.97431 -1.67773 1.25586 -1.67773V2.32227ZM0.486328 1.55273C0.486328 1.6546 0.462216 1.36365 0.764497 1.06137C1.06678 0.759091 1.35773 0.783203 1.25586 0.783203V4.7832C1.97431 4.7832 2.88049 4.60224 3.59292 3.8898C4.30536 3.17736 4.48633 2.27118 4.48633 1.55273H0.486328ZM1.25586 0.783203C1.15399 0.783203 1.44494 0.759091 1.74722 1.06137C2.0495 1.36365 2.02539 1.6546 2.02539 1.55273H-1.97461C-1.97461 2.27118 -1.79364 3.17736 -1.08121 3.8898C-0.368768 4.60224 0.537414 4.7832 1.25586 4.7832V0.783203ZM2.02539 1.55273C2.02539 1.45087 2.0495 1.74181 1.74722 2.0441C1.44494 2.34638 1.15399 2.32227 1.25586 2.32227V-1.67773C0.537414 -1.67773 -0.368768 -1.49677 -1.08121 -0.784331C-1.79364 -0.0718931 -1.97461 0.834289 -1.97461 1.55273H2.02539ZM2.13477 4.94336C2.13477 5.15479 2.08298 5.43462 1.91421 5.71248C1.74786 5.98635 1.53429 6.14908 1.37723 6.23527C1.2314 6.3153 1.12962 6.33313 1.12526 6.33393C1.11664 6.33551 1.15477 6.32812 1.25586 6.32812V2.32812C0.764728 2.32812 0.0803683 2.38423 -0.547156 2.7286C-0.891064 2.91733 -1.24477 3.20823 -1.50454 3.63591C-1.76674 4.06758 -1.86523 4.52685 -1.86523 4.94336H2.13477ZM1.25586 6.32812C1.35695 6.32812 1.39508 6.33551 1.38646 6.33393C1.3821 6.33313 1.28032 6.3153 1.13448 6.23527C0.977426 6.14908 0.763859 5.98635 0.59751 5.71248C0.428734 5.43462 0.376953 5.15479 0.376953 4.94336H4.37695C4.37695 4.52685 4.27846 4.06758 4.01626 3.63591C3.75649 3.20823 3.40278 2.91733 3.05888 2.7286C2.43135 2.38423 1.74699 2.32812 1.25586 2.32812V6.32812ZM0.376953 4.94336V17.6992H4.37695V4.94336H0.376953ZM0.376953 17.6992C0.376953 17.498 0.425007 17.2262 0.587517 16.9527C0.748718 16.6814 0.958434 16.5162 1.11818 16.4266C1.26611 16.3436 1.37099 16.3243 1.37873 16.3229C1.39041 16.3207 1.35499 16.3281 1.25586 16.3281V20.3281C1.75099 20.3281 2.44253 20.2701 3.07518 19.9152C3.42177 19.7208 3.77163 19.4245 4.02625 18.996C4.28219 18.5653 4.37695 18.1101 4.37695 17.6992H0.376953ZM1.25586 16.3281C1.15673 16.3281 1.12131 16.3207 1.13299 16.3229C1.14073 16.3243 1.24561 16.3436 1.39354 16.4266C1.55329 16.5162 1.763 16.6814 1.9242 16.9527C2.08671 17.2262 2.13477 17.498 2.13477 17.6992H-1.86523C-1.86523 18.1101 -1.77047 18.5653 -1.51453 18.996C-1.25991 19.4245 -0.910056 19.7208 -0.563463 19.9152C0.0691905 20.2701 0.760728 20.3281 1.25586 20.3281V16.3281ZM2.13477 17.6992V4.94336H-1.86523V17.6992H2.13477ZM16.7778 7.14453L15.0776 8.19776L15.0831 8.20658L15.0886 8.21535L16.7778 7.14453ZM9.62742 6.50195H7.62742V14.2118L11.3752 7.47417L9.62742 6.50195ZM14.0024 4.31445L14.0024 6.31449L14.0149 6.31441L14.0024 4.31445ZM18.0766 5.85938L16.8029 7.4013L16.8089 7.4063L16.815 7.41126L18.0766 5.85938ZM18.8559 16.3418C18.6105 16.3418 18.749 16.2955 19.013 16.4454C19.1753 16.5376 19.3837 16.7049 19.5426 16.9756C19.7022 17.2476 19.7485 17.5159 19.7485 17.7129H15.7485C15.7485 18.6533 16.2371 19.469 17.0377 19.9237C17.6709 20.2833 18.3631 20.3418 18.8559 20.3418V16.3418ZM19.7485 17.7129V10.4668H15.7485V17.7129H19.7485ZM19.7485 10.4668C19.7485 8.8887 19.3145 7.41064 18.467 6.07371L15.0886 8.21535C15.5354 8.92009 15.7485 9.65688 15.7485 10.4668H19.7485ZM18.478 6.0913C17.4315 4.40193 15.7557 3.59961 13.811 3.59961V7.59961C14.546 7.59961 14.8481 7.82724 15.0776 8.19776L18.478 6.0913ZM13.811 3.59961C11.9705 3.59961 10.2757 4.20142 9.10762 5.6711C8.00915 7.05317 7.62742 8.89731 7.62742 10.8633H11.6274C11.6274 9.32014 11.943 8.53245 12.239 8.15995C12.4654 7.87508 12.8624 7.59961 13.811 7.59961V3.59961ZM7.62742 10.8633V17.7129H11.6274V10.8633H7.62742ZM7.62742 17.7129C7.62742 17.5159 7.67376 17.2476 7.83338 16.9756C7.99226 16.7049 8.20061 16.5376 8.36292 16.4454C8.62697 16.2955 8.7654 16.3418 8.52 16.3418V20.3418C9.01288 20.3418 9.70503 20.2833 10.3382 19.9237C11.1388 19.469 11.6274 18.6533 11.6274 17.7129H7.62742ZM8.52 16.3418C8.42087 16.3418 8.38545 16.3344 8.39713 16.3366C8.40487 16.338 8.50975 16.3573 8.65768 16.4403C8.81743 16.5299 9.02714 16.6951 9.18834 16.9664C9.35085 17.2399 9.39891 17.5116 9.39891 17.7129H5.39891C5.39891 18.1238 5.49367 18.579 5.74961 19.0097C6.00423 19.4382 6.35408 19.7344 6.70068 19.9289C7.33333 20.2838 8.02487 20.3418 8.52 20.3418V16.3418ZM9.39891 17.7129V4.95703H5.39891V17.7129H9.39891ZM9.39891 4.95703C9.39891 5.15829 9.35085 5.43005 9.18834 5.70354C9.02714 5.97483 8.81743 6.14003 8.65768 6.22964C8.50975 6.31262 8.40487 6.33191 8.39713 6.33336C8.38545 6.33554 8.42087 6.32812 8.52 6.32812V2.32812C8.02487 2.32812 7.33333 2.38616 6.70068 2.74107C6.35408 2.9355 6.00423 3.23172 5.74961 3.66023C5.49367 4.09095 5.39891 4.54614 5.39891 4.95703H9.39891ZM8.52 6.32812C8.7654 6.32812 8.62697 6.37443 8.36292 6.22447C8.20061 6.1323 7.99226 5.96498 7.83338 5.69429C7.67376 5.42235 7.62742 5.15397 7.62742 4.95703H11.6274C11.6274 4.01665 11.1388 3.20088 10.3382 2.74623C9.70503 2.38664 9.01288 2.32812 8.52 2.32812V6.32812ZM7.62742 4.95703V6.50195H11.6274V4.95703H7.62742ZM11.3752 7.47417C11.7373 6.82316 12.4008 6.31445 14.0024 6.31445V2.31445C11.3931 2.31445 9.1399 3.26408 7.87962 5.52974L11.3752 7.47417ZM14.0149 6.31441C14.9479 6.30858 15.8611 6.62329 16.8029 7.4013L19.3504 4.31745C17.7766 3.01734 15.9736 2.30209 13.9899 2.31449L14.0149 6.31441ZM16.815 7.41126C17.5004 7.9684 17.977 8.86237 17.977 10.4668H21.977C21.977 7.98789 21.1868 5.81024 19.3382 4.30749L16.815 7.41126ZM17.977 10.4668V17.7129H21.977V10.4668H17.977ZM17.977 17.7129C17.977 17.5116 18.0251 17.2399 18.1876 16.9664C18.3488 16.6951 18.5585 16.5299 18.7183 16.4403C18.8662 16.3573 18.9711 16.338 18.9788 16.3366C18.9905 16.3344 18.9551 16.3418 18.8559 16.3418V20.3418C19.3511 20.3418 20.0426 20.2838 20.6753 19.9289C21.0219 19.7344 21.3717 19.4382 21.6263 19.0097C21.8823 18.579 21.977 18.1238 21.977 17.7129H17.977Z" fill="#31708B"/>
</svg>
