<svg width="103" height="102" viewBox="0 0 103 102" fill="none" xmlns="http://www.w3.org/2000/svg">
<ellipse cx="58" cy="58.5" rx="45" ry="30.5" fill="#0EBDB8"/>
<path d="M38.0167 78.7778H63.9778M51 1V6.55556M86.3556 15.6444L82.4278 19.5722M101 51H95.4444M6.55556 51H1M19.5722 19.5722L15.6444 15.6444M31.3556 70.6444C27.4715 66.7594 24.8266 61.8098 23.7554 56.4217C22.6842 51.0335 23.2347 45.4487 25.3374 40.3734C27.44 35.2981 31.0004 30.9602 35.5683 27.9083C40.1361 24.8564 45.5064 23.2274 51 23.2274C56.4936 23.2274 61.8639 24.8564 66.4317 27.9083C70.9996 30.9602 74.56 35.2981 76.6626 40.3734C78.7653 45.4487 79.3158 51.0335 78.2446 56.4217C77.1733 61.8098 74.5285 66.7594 70.6444 70.6444L67.6 73.6833C65.8595 75.4242 64.4789 77.4908 63.5371 79.7652C62.5954 82.0396 62.1108 84.4772 62.1111 86.9389V89.8889C62.1111 92.8357 60.9405 95.6619 58.8567 97.7456C56.773 99.8294 53.9468 101 51 101C48.0531 101 45.227 99.8294 43.1433 97.7456C41.0595 95.6619 39.8889 92.8357 39.8889 89.8889V86.9389C39.8889 81.9667 37.9111 77.1944 34.4 73.6833L31.3556 70.6444Z" stroke="black" stroke-width="2" stroke-linecap="round" stroke-linejoin="round"/>
</svg>
