<svg width="47" height="41" viewBox="0 0 47 41" fill="none" xmlns="http://www.w3.org/2000/svg">
<path d="M18.9797 0.314979C19.1687 0.113983 19.4323 0 19.7082 0H25.5374C25.7126 0 25.8032 0.209345 25.6831 0.337004L8.65648 18.4449C7.57058 19.5998 7.57058 21.4002 8.65648 22.5551L25.6831 40.663C25.8032 40.7907 25.7126 41 25.5374 41H19.7082C19.4323 41 19.1687 40.886 18.9797 40.685L2.57646 23.2401C1.12859 21.7003 1.12859 19.2997 2.57646 17.7599L18.9797 0.314979Z" fill="#16BDCA"/>
<path d="M34.0964 34.6991C33.9082 34.8915 33.6505 35 33.3813 35H29.4752C29.2981 35 29.2084 34.7868 29.3322 34.6602L40.1476 23.5972C41.2873 22.4313 41.2873 20.5687 40.1476 19.4028L29.3322 8.33981C29.2084 8.21318 29.2981 8 29.4752 8H33.3813C33.6505 8 33.9082 8.10849 34.0964 8.30094L44.2664 18.7038C45.786 20.2582 45.786 22.7418 44.2664 24.2962L34.0964 34.6991Z" fill="#16BDCA"/>
</svg>
