<svg width="487" height="471" viewBox="0 0 487 471" fill="none" xmlns="http://www.w3.org/2000/svg">
<path d="M24.0379 80.5793V375.247H453.629V80.5793C453.632 76.6753 452.848 72.8089 451.322 69.2015C449.797 65.594 447.558 62.3162 444.736 59.5556C441.913 56.795 438.562 54.6059 434.874 53.1133C431.186 51.6208 427.233 50.8541 423.241 50.8573H54.4257C46.3664 50.8573 38.6371 53.9887 32.9383 59.5627C27.2395 65.1366 24.0379 72.6966 24.0379 80.5793Z" stroke="#EDEDED" stroke-width="1.64" stroke-linecap="round" stroke-linejoin="round"/>
<path d="M24.0379 80.5793V81.9041H453.629V80.5793C453.632 76.6753 452.848 72.8089 451.322 69.2015C449.797 65.594 447.558 62.3162 444.736 59.5556C441.913 56.795 438.562 54.6059 434.874 53.1133C431.186 51.6208 427.233 50.8541 423.241 50.8573H54.4257C46.3664 50.8573 38.6371 53.9887 32.9383 59.5627C27.2395 65.1366 24.0379 72.6966 24.0379 80.5793Z" stroke="#DDDDDD" stroke-width="1.64" stroke-linecap="round" stroke-linejoin="round"/>
<path d="M82.1786 66.3927C82.1786 67.4646 82.5035 68.5123 83.1124 69.4035C83.7212 70.2947 84.5865 70.9894 85.599 71.3995C86.6114 71.8097 87.7254 71.917 88.8002 71.7079C89.875 71.4988 90.8623 70.9827 91.6372 70.2248C92.4121 69.4669 92.9398 68.5012 93.1536 67.45C93.3674 66.3987 93.2576 65.3091 92.8383 64.3188C92.4189 63.3286 91.7087 62.4822 90.7976 61.8867C89.8864 61.2912 88.8151 60.9734 87.7193 60.9734C86.2498 60.9734 84.8405 61.5444 83.8014 62.5607C82.7623 63.577 82.1786 64.9554 82.1786 66.3927Z" fill="#EDEDED"/>
<path d="M64.1528 66.3927C64.1528 67.4646 64.4777 68.5123 65.0865 69.4035C65.6953 70.2947 66.5607 70.9894 67.5731 71.3995C68.5856 71.8097 69.6996 71.917 70.7744 71.7079C71.8492 71.4988 72.8365 70.9827 73.6114 70.2248C74.3863 69.4669 74.9139 68.5012 75.1277 67.45C75.3415 66.3987 75.2318 65.3091 74.8124 64.3188C74.3931 63.3286 73.6829 62.4822 72.7717 61.8867C71.8606 61.2912 70.7893 60.9734 69.6935 60.9734C68.224 60.9734 66.8147 61.5444 65.7756 62.5607C64.7365 63.577 64.1528 64.9554 64.1528 66.3927Z" fill="#DDDDDD"/>
<path d="M46.1269 66.3927C46.1269 67.4646 46.4519 68.5123 47.0607 69.4035C47.6695 70.2947 48.5349 70.9894 49.5473 71.3995C50.5598 71.8097 51.6738 71.917 52.7486 71.7079C53.8234 71.4988 54.8107 70.9827 55.5855 70.2248C56.3604 69.4669 56.8881 68.5012 57.1019 67.45C57.3157 66.3987 57.206 65.3091 56.7866 64.3188C56.3673 63.3286 55.6571 62.4822 54.7459 61.8867C53.8348 61.2912 52.7635 60.9734 51.6677 60.9734C50.1982 60.9734 48.7889 61.5444 47.7498 62.5607C46.7107 63.577 46.1269 64.9554 46.1269 66.3927Z" fill="#EDEDED"/>
<path d="M444.468 208.692C445.576 196.36 389.948 173.021 380.812 191.037L398.887 208.692C398.887 208.692 436.49 223.216 444.468 208.692Z" fill="#93BEE5"/>
<path d="M417.208 120.586C425.334 96.0184 425.901 93.0077 420.508 91.1049C415.115 89.2021 401.374 117.19 399.822 120.586C394.389 131.336 390.202 142.646 387.337 154.306C384.875 165.193 381.797 190.291 381.279 196.336C379.162 221.843 422.158 229.575 424.029 209.752C425.901 189.929 426.098 183.498 426.098 183.498C426.098 183.498 448.261 185.57 451.388 169.336C453.341 156.641 454.091 143.797 453.629 130.967C453.629 130.967 487.366 125.5 486.159 116.805C484.953 108.11 418.956 125.692 418.956 125.692L417.208 120.586Z" fill="#E2AEA0"/>
<path d="M453.629 130.967C453.629 130.967 487.366 125.5 486.159 116.805C484.953 108.11 418.956 125.692 418.956 125.692L417.208 120.586C425.334 96.0184 425.901 93.0077 420.508 91.1049C415.115 89.2021 401.374 117.19 399.822 120.586" stroke="#934735" stroke-width="0.61" stroke-linecap="round" stroke-linejoin="round"/>
<path d="M419.006 125.692C421.862 136.547 421.374 147.985 417.602 158.57" stroke="#934735" stroke-width="0.61" stroke-linecap="round" stroke-linejoin="round"/>
<path d="M434.815 106.881C429.521 109.579 425.359 110.157 423.783 102.787C422.207 95.4163 429.521 95.1754 431.983 95.5608C435.751 96.1629 437.081 105.701 434.815 106.881Z" fill="#683F1D"/>
<path d="M433.756 104.954C434.938 108.904 435.8 113.842 435.776 113.697C434.889 114.131 429.816 115.841 429.028 114.131C428.235 111.118 427.675 108.05 427.354 104.954H433.756Z" fill="#683F1D"/>
<path d="M438.534 116.154C441.316 128.197 455.599 194.578 456.067 196.746C456.535 198.913 455.919 208.933 455.033 209.319C454.146 209.704 449.221 202.526 447.374 198.889C445.527 195.252 429.521 122.489 428.511 119.093C426.049 110.831 436.711 108.254 438.534 116.154Z" fill="#683F1D"/>
<path d="M451.117 153.801C458.037 155.366 460.007 161.821 454.885 166.108C449.393 170.709 435.874 168.517 435.185 162.761C434.495 157.004 445.355 152.5 451.117 153.801Z" fill="#E2AEA0" stroke="#934735" stroke-width="0.61" stroke-linecap="round" stroke-linejoin="round"/>
<path d="M451.684 143.203C458.776 142.191 460.524 149.056 455.451 154.475C450.378 159.894 433.658 161.002 432.722 154.668C431.786 148.333 447.374 143.829 451.684 143.203Z" fill="#E2AEA0" stroke="#934735" stroke-width="0.61" stroke-linecap="round" stroke-linejoin="round"/>
<path d="M458.012 131.352C449.098 129.281 429.792 142.095 430.555 146.069C431.491 151.055 440.578 151.826 453.506 146.454C465.622 141.444 462.396 132.364 458.012 131.352Z" fill="#E2AEA0" stroke="#934735" stroke-width="0.61" stroke-linecap="round" stroke-linejoin="round"/>
<mask id="mask0_48_382" style="mask-type:luminance" maskUnits="userSpaceOnUse" x="24" y="50" width="430" height="326">
<path d="M24.0379 80.5793V375.247H453.629V80.5793C453.632 76.6753 452.848 72.8089 451.322 69.2015C449.797 65.594 447.558 62.3162 444.736 59.5556C441.913 56.795 438.562 54.6059 434.874 53.1133C431.186 51.6208 427.233 50.8541 423.241 50.8573H54.4257C46.3664 50.8573 38.6371 53.9887 32.9383 59.5627C27.2395 65.1366 24.0379 72.6966 24.0379 80.5793Z" fill="white"/>
</mask>
<g mask="url(#mask0_48_382)">
<path d="M28.6428 227.528C56.3219 226.203 79.2482 250.65 86.3403 278.71C86.5619 279.481 86.7343 280.348 86.9067 281.263C87.6692 285.584 88.1953 289.942 88.4827 294.318C91.4378 331.362 88.6551 405.113 88.4827 406.751C88.3596 407.353 108.183 406.751 135.394 405.498C145.441 405.041 156.547 404.535 168.072 403.957C226.779 401.139 296.494 397.333 296.494 397.333L300.705 351.305C300.705 351.305 309.496 365.757 339.515 394.202C369.533 422.648 417.577 406.751 412.406 371.08C409.18 348.68 395.636 332.277 379.26 304.867C374.335 296.365 368.868 286.827 363.475 275.723C356.309 260.959 349.316 246.82 342.642 234.127C339.712 228.515 336.83 223.192 334.048 218.158C323.508 199.154 314.052 184.751 306.443 178.031C283.566 157.799 234.586 169.456 221.534 173.551C202.056 179.743 181.846 183.467 161.399 184.63C132.439 186.606 88.4827 198.817 65.187 206.741C51.7225 211.153 39.3266 218.219 28.766 227.503L28.6428 227.528Z" fill="#0EBDB8"/>
<path d="M9.16413 269.582C34.5037 244.701 72.9933 233.838 111.606 267.51C156.523 306.65 190.999 313.442 241.53 256.286C278.074 214.955 290.781 204.405 333.949 218.158C323.41 199.154 313.953 184.751 306.344 178.031C283.467 157.799 234.487 169.456 221.436 173.551C201.957 179.743 181.747 183.467 161.3 184.63C132.341 186.606 88.3842 198.817 65.0886 206.741C51.624 211.153 39.2281 218.219 28.6675 227.503C18.6942 235.307 12.7841 250.939 9.16413 269.582Z" fill="#0EBDB8"/>
<path d="M343.332 340.707C359.412 357.832 373.99 320.668 379.211 304.867C374.286 296.365 368.819 286.827 363.426 275.723C356.26 260.959 349.266 246.82 342.593 234.127C330.699 251.927 346.779 268.233 347.912 276.302C350.719 297.834 320.134 316.116 343.332 340.707Z" fill="#0EBDB8"/>
<path d="M444.468 208.692C419.547 213.823 380.812 191.037 380.812 191.037C380.812 191.037 359.461 284.226 353.896 304.892C348.331 325.557 312.673 406.51 382.141 409.834C426.713 411.953 429.718 329.074 432.328 301.784C434.938 274.495 444.468 208.692 444.468 208.692Z" fill="#0EBDB8"/>
<path d="M427.945 219.338C408.761 220.663 387.387 208.042 387.387 208.042" stroke="#0EBDB8" stroke-width="0.61" stroke-linecap="round" stroke-linejoin="round"/>
<path d="M380.812 191.037C380.812 191.037 359.461 284.226 353.896 304.892C350.842 316.164 338.85 345.38 339.859 370.14" stroke="#0EBDB8" stroke-width="0.61" stroke-linecap="round" stroke-linejoin="round"/>
<path d="M241.53 188.773C229.217 211.342 196.121 233.019 156.326 203.08C156.326 203.08 152.041 190.652 152.484 190.652C152.928 190.652 235.891 180.825 235.891 180.825L241.53 188.773Z" fill="white"/>
<path d="M231.918 194.88L231.938 194.876L231.957 194.875C233.829 194.715 236.198 195.223 238.664 196.035C241.143 196.852 243.776 197.996 246.194 199.158C248.615 200.321 250.83 201.507 252.474 202.41C253.016 202.707 253.498 202.974 253.903 203.2C254.113 203.316 254.302 203.421 254.468 203.513C254.556 203.562 254.638 203.607 254.713 203.648C254.7 203.324 254.659 202.883 254.581 202.331C254.386 200.947 253.964 198.915 253.204 196.393C251.684 191.351 248.817 184.369 243.724 176.718C233.742 161.722 219.341 159.115 209.285 161.188L209.932 199.91C217.148 197.794 224.491 196.114 231.918 194.88ZM254.698 204.173C254.697 204.177 254.696 204.179 254.696 204.179C254.696 204.179 254.697 204.177 254.698 204.173Z" fill="#EFFAF3" stroke="black"/>
<path d="M162.356 165.794C162.351 165.794 162.346 165.795 162.34 165.795C162.177 165.799 161.937 165.808 161.629 165.825C161.012 165.859 160.126 165.925 159.052 166.051C156.902 166.305 154.009 166.803 151.027 167.779C145.042 169.737 138.836 173.566 137.362 181.066C135.859 188.716 137.171 197.156 140.148 204.768C143.125 212.38 147.747 219.116 152.806 223.363C154.07 224.424 155.035 224.981 155.826 225.184C156.584 225.378 157.21 225.255 157.849 224.862C158.517 224.451 159.196 223.746 160.01 222.763C160.392 222.303 160.794 221.792 161.235 221.233L161.312 221.135C161.781 220.54 162.291 219.895 162.854 219.213C167.317 213.801 175.035 206.145 193.006 201.169L162.356 165.794Z" fill="#EFFAF3" stroke="black"/>
<path d="M151.524 183.45C151.524 183.45 164.107 202.165 192.156 202.599C220.204 203.032 225.597 186.654 225.597 186.654C222.568 179.235 218.899 163.411 216.56 152.307C215.082 145.298 214.097 140.264 214.097 140.264C214.097 140.264 209.468 96.3315 161.3 98.981L160.488 106.207L151.524 183.45Z" fill="#E2AEA0"/>
<path d="M216.56 152.644C215.082 145.635 214.097 140.601 214.097 140.601L186.689 128.029C186.689 128.029 182.355 158.642 216.56 152.644Z" fill="#914839"/>
<path d="M300.631 351.305C304.497 307.95 304.497 272.978 304.497 272.978" stroke="#0EBDB8" stroke-width="0.61" stroke-linecap="round" stroke-linejoin="round"/>
</g>
<path d="M117.639 456.537C119.988 455.695 122.228 454.588 124.313 453.237C138.349 444.18 139.556 426.525 135.296 405.498C131.996 389.385 125.446 371.296 119.117 353.569C111.877 333.361 104.785 313.635 102.79 297.858C102.495 295.643 102.322 293.523 102.248 291.5C101.884 279.382 99.6165 267.392 95.5256 255.949C83.9516 224.083 58.5874 204.02 28.6675 227.503C18.8173 235.283 12.8087 250.915 9.18877 269.558C7.88362 276.205 6.87398 283.238 6.03671 290.416C3.27866 314.815 2.90931 340.996 1.67804 360.578C-4.3552 455.236 18.8173 493.003 117.639 456.537Z" fill="#0EBDB8"/>
<path d="M9.16411 269.582C30.9576 248.169 62.5521 237.138 95.5256 255.949C83.9516 224.083 58.5874 204.02 28.6675 227.503C18.6942 235.307 12.7841 250.939 9.16411 269.582Z" fill="#0EBDB8"/>
<path d="M88.3842 406.751C88.2611 407.353 108.085 406.751 135.296 405.498C145.343 405.041 156.449 404.535 167.974 403.957C187.674 395.262 199.987 382.689 189.472 364.673C160.857 315.706 108.208 383.556 105.548 334.999C103.701 301.736 95.4517 294.535 88.4827 294.318C91.4378 331.362 88.6551 405.065 88.3842 406.751Z" fill="#0EBDB8"/>
<path d="M81.6615 264.259C85.5747 273.854 87.8781 284.004 88.4827 294.318C91.1176 331.386 88.6551 405.113 88.4827 406.751" stroke="white" stroke-width="0.61" stroke-linecap="round" stroke-linejoin="round"/>
<path d="M117.639 456.537C119.988 455.695 122.228 454.588 124.313 453.237C101.682 458.054 67.8466 462.269 52.8989 449.817C29.3816 430.235 44.3293 405.137 31.327 391.312C18.3248 377.487 -0.415198 373.031 6.01205 290.512C3.254 314.911 2.88464 341.093 1.65337 360.675C-4.35524 455.236 18.8173 493.003 117.639 456.537Z" fill="#0EBDB8"/>
<path d="M174.278 290.464C170.683 274.64 190.974 275.362 190.974 275.362C189.176 260.766 208.926 256.744 213.482 270.954C229.513 266.137 234.586 270.954 236.925 279.216L174.278 290.464Z" fill="#DDDDDD"/>
<path d="M201.637 276.88C198.985 276.88 196.835 274.777 196.835 272.183C196.835 269.589 198.985 267.486 201.637 267.486C204.289 267.486 206.439 269.589 206.439 272.183C206.439 274.777 204.289 276.88 201.637 276.88Z" fill="#F9F9F9" stroke="#DDDDDD" stroke-width="0.82" stroke-linecap="round" stroke-linejoin="round"/>
<path d="M267.411 267.51L297.356 426.333L178.44 449.817L146.5 290.777L267.411 267.51Z" fill="#F9F9F9" stroke="#DDDDDD" stroke-width="0.82" stroke-linecap="round" stroke-linejoin="round"/>
<path d="M230.769 372.742C236.851 388.205 237.196 404.439 234.413 409.882C234.413 409.882 223.061 411.929 211.733 381.846L230.769 372.742Z" fill="#0EBDB8"/>
<path d="M215.279 342.923C242.49 333.795 255.493 328.255 260.393 326.954C265.294 325.654 282.999 324.208 285.831 326.954C287.081 328.269 287.935 329.896 288.3 331.655C288.665 333.415 288.526 335.239 287.9 336.926C286.964 340.611 289.968 343.285 290.362 347.018C290.756 350.751 286.201 351.835 287.161 355.544C288.121 359.254 291.101 363.276 289.032 367.346C286.964 371.417 291.101 375.632 287.161 380.618C283.221 385.603 243.106 387.988 234.315 386.157L217.077 393.696C217.077 393.696 186.664 363.035 215.279 342.923Z" fill="#E2AEA0"/>
<path d="M260.492 326.882C265.417 325.605 283.098 324.136 285.93 326.882C287.179 328.197 288.033 329.824 288.398 331.583C288.763 333.342 288.625 335.166 287.998 336.854C287.062 340.539 290.067 343.212 290.461 346.946C290.855 350.679 286.299 351.763 287.259 355.472C288.22 359.181 291.2 363.204 289.131 367.274C287.062 371.345 291.199 375.56 287.259 380.545" stroke="#934735" stroke-width="0.61" stroke-linecap="round" stroke-linejoin="round"/>
<path d="M159.7 357.351C117.048 368.334 72.6978 380.931 61.8873 396.587M159.7 357.351C164.434 356.133 169.147 354.934 173.79 353.752C183.105 351.382 192.139 349.084 200.504 346.849M159.7 357.351L159.824 357.835M159.7 357.351L159.824 357.835C159.824 357.835 159.824 357.835 159.824 357.835M61.8873 396.587L217.742 378.883C214.649 367.275 213.792 355.207 215.213 343.295C215.04 343.346 214.866 343.397 214.692 343.448M61.8873 396.587C60.9023 398.008 59.9665 399.477 59.08 400.97L61.8873 396.587ZM200.504 346.849C205.574 345.521 210.325 344.207 214.756 342.908C214.734 343.088 214.713 343.268 214.692 343.448M200.504 346.849L200.633 347.332C200.633 347.332 200.632 347.332 200.632 347.333M200.504 346.849L200.631 347.333C200.631 347.333 200.631 347.333 200.632 347.333M214.692 343.448C213.299 355.354 214.168 367.412 217.259 379.012L217.259 379.015C218.43 383.3 219.946 387.487 221.791 391.538C224.647 398.175 228.587 404.312 233.454 409.71C214.555 419.321 195.171 427.994 175.377 435.694L175.374 435.695C163.906 440.244 151.109 445.01 137.23 449.655L137.229 449.656C128.862 452.472 120.102 455.264 111.022 457.936L111.021 457.936C94.2554 462.897 81.5062 463.853 72.0966 462.043C62.7052 460.237 56.6402 455.678 53.1872 449.572C47.3417 439.032 49.0718 423.707 55.2296 409.43M214.692 343.448C210.314 344.729 205.627 346.024 200.632 347.333M200.632 347.333C192.264 349.568 183.226 351.867 173.909 354.238C169.267 355.419 164.556 356.618 159.824 357.835M159.824 357.835C138.498 363.327 116.769 369.216 99.0244 375.686C90.1521 378.921 82.2895 382.296 75.9777 385.832C69.6564 389.373 64.9366 393.051 62.2987 396.871L62.2982 396.871C61.3206 398.282 60.3911 399.741 59.5099 401.226L59.5094 401.226C59.4488 401.328 59.3879 401.43 59.327 401.531C59.0365 402.016 58.7456 402.501 58.4871 402.987L58.4776 403.005L58.4666 403.022C58.3774 403.162 58.2964 403.306 58.224 403.454L58.2175 403.467L58.2103 403.48C57.8208 404.17 57.4302 404.911 57.0627 405.63L57.0591 405.636C56.3922 406.893 55.7824 408.158 55.2296 409.43M55.2296 409.43L54.7705 409.232L55.2291 409.431C55.2293 409.431 55.2294 409.43 55.2296 409.43ZM233.916 409.475C229.042 404.092 225.1 397.965 222.248 391.336L233.916 409.475ZM175.558 436.16C195.41 428.437 214.85 419.737 233.803 410.094L175.558 436.16Z" fill="#0EBDB8" stroke="#EFFAF3"/>
<path d="M215.279 342.923C166.447 357.375 77.8938 373.729 61.9857 396.755C59.2368 400.757 56.8552 404.988 54.869 409.4" stroke="#0EBDB8" stroke-width="0.61" stroke-linecap="round" stroke-linejoin="round"/>
<path d="M200.701 346.946C197.672 376.884 213.482 405.619 213.482 405.619" stroke="#0EBDB8" stroke-width="0.61" stroke-linecap="round" stroke-linejoin="round"/>
<path d="M52.8989 449.817C59.9664 462.317 77.6968 468.363 111.311 458.415C120.397 455.742 129.164 452.948 137.537 450.13C117.861 455.212 71.2203 465.087 52.8989 449.817Z" fill="#0EBDB8"/>
<path d="M161.3 99.2459L160.463 106.472C177.528 132.46 200.824 140.601 214.097 140.601C236.014 135.254 243.5 115.962 244.78 95.2718C245.11 90.3158 245.126 85.3446 244.83 80.3867C243.799 66.3457 241.324 52.4421 237.442 38.8866C237.442 38.8866 171.618 8.92372 167.063 69.0663C167.063 69.0663 152.952 66.6577 150.317 81.9041C148.273 94.5733 161.3 99.2459 161.3 99.2459Z" fill="#E2AEA0"/>
<path d="M234.265 80.4589C232.81 80.4589 231.631 79.305 231.631 77.8817C231.631 76.4584 232.81 75.3045 234.265 75.3045C235.721 75.3045 236.9 76.4584 236.9 77.8817C236.9 79.305 235.721 80.4589 234.265 80.4589Z" fill="#683F1D"/>
<path d="M215.944 77.1832C214.489 77.1832 213.309 76.0293 213.309 74.606C213.309 73.1827 214.489 72.0288 215.944 72.0288C217.399 72.0288 218.579 73.1827 218.579 74.606C218.579 76.0293 217.399 77.1832 215.944 77.1832Z" fill="#683F1D"/>
<path d="M219.958 60.7807C219.663 64.2732 207.399 65.5979 206.71 63.6469C205.651 60.6362 220.598 52.5433 219.958 60.7807Z" fill="#604730"/>
<path d="M243.328 65.9351C243.328 67.8379 229.981 68.7291 230.473 61.985C230.793 57.1919 243.032 60.7325 243.328 65.9351Z" fill="#604730"/>
<path d="M170.633 88.0701C165.142 80.1217 156.449 80.9888 155.538 82.5062" stroke="#934735" stroke-width="0.61" stroke-linecap="round" stroke-linejoin="round"/>
<path d="M168.294 85.3484C160.192 80.6998 155.784 91.129 166.028 91.129" stroke="#934735" stroke-width="0.61" stroke-linecap="round" stroke-linejoin="round"/>
<path d="M227.173 70.4151C224.957 74.6301 225.129 77.1592 226.607 79.8809C228.084 82.6026 232.542 88.7445 230.202 94.1879" stroke="#934735" stroke-width="0.61" stroke-linecap="round" stroke-linejoin="round"/>
<path d="M212.817 95.1273C214.762 101.655 222.667 105.749 226.484 104.906C226.484 104.906 222.667 115.046 215.944 112.445C208.212 109.482 212.817 95.1273 212.817 95.1273Z" fill="white" stroke="#934735" stroke-width="0.61" stroke-linecap="round" stroke-linejoin="round"/>
<path d="M171.84 97.3672C170.318 98.3905 168.592 99.087 166.776 99.4108C164.959 99.7346 163.093 99.6784 161.3 99.246" stroke="#934735" stroke-width="0.61" stroke-linecap="round" stroke-linejoin="round"/>
<path d="M147.929 62.8521C140.344 73.0164 151.721 77.3037 151.721 77.3037C152.883 75.6752 154.407 74.3249 156.178 73.3536C157.297 72.7103 158.549 72.319 159.843 72.208C161.136 72.0971 162.438 72.2693 163.655 72.7121C164.872 73.155 165.973 73.8573 166.877 74.7682C167.782 75.6791 168.468 76.7756 168.885 77.9781C184.374 78.2912 177.701 66.465 177.701 66.465C191.59 71.8843 192.033 57.9867 186.049 51.7003C196.884 63.5988 210.674 51.7003 208.409 40.9821C212.25 52.6878 225.917 53.025 224.095 43.3907C225.269 45.3928 226.692 47.2453 228.331 48.9064C237.738 58.1313 246.135 48.256 242.613 40.958C256.699 54.0848 262.806 39.3924 249.361 31.4922C259.999 22.9658 247.44 10.8265 238.846 17.0407C240.791 1.9388 224.883 1.2644 217.889 10.0798C215.131 -6.51536 193.904 2.54095 193.042 10.417C177.405 -0.277104 165.29 7.62308 166.866 24.989C160.537 16.7276 146.993 21.5688 152.09 42.7644C139.211 41.8492 136.97 57.6736 147.929 62.8521Z" fill="#604730"/>
<path d="M156.178 73.3535C157.297 72.7103 158.549 72.319 159.843 72.208C161.136 72.0971 162.438 72.2693 163.655 72.7121C164.872 73.1549 165.973 73.8573 166.877 74.7682C167.782 75.679 168.468 76.7755 168.885 77.978C184.374 78.2912 177.701 66.465 177.701 66.465C191.59 71.8843 192.033 57.9867 186.049 51.7003C196.884 63.5987 210.674 51.7003 208.409 40.9821C212.25 52.6878 225.917 53.025 224.095 43.3907C225.269 45.3927 226.692 47.2453 228.331 48.9063C232.123 37.6582 223.627 22.8213 210.65 29.6376C208.95 20.6054 187.723 14.7525 187.846 37.6341C179.991 26.8918 162.211 30.5769 170.609 51.0259C164.009 45.9197 148.79 54.3016 156.178 73.3535Z" fill="#473526"/>
<path d="M184.67 77.3277C182.798 80.9888 186.32 86.4322 192.55 89.4911C198.78 92.55 205.355 91.8997 207.325 88.3591C209.295 84.8185 205.675 79.2546 199.445 76.1957C193.215 73.1368 186.566 73.6667 184.67 77.3277Z" fill="#A0503D"/>
<path d="M236.605 91.2735C237.565 93.8748 240.816 95.2718 244.83 95.1995C245.14 90.2665 245.14 85.3196 244.83 80.3867C238.87 82.9398 235.226 87.6124 236.605 91.2735Z" fill="#A0503D"/>
</svg>
