<svg width="26" height="20" viewBox="0 0 26 20" fill="none" xmlns="http://www.w3.org/2000/svg">
<path d="M24.0339 0.00235704C21.6554 0.13734 16.928 0.628659 14.0095 2.41512C13.8082 2.53838 13.694 2.75757 13.694 2.98673V18.7797C13.694 19.281 14.2422 19.5978 14.7044 19.3652C17.707 17.8539 22.0495 17.4416 24.1966 17.3287C24.9297 17.2901 25.4996 16.7024 25.4996 15.998V1.33482C25.5 0.566159 24.8333 -0.0427818 24.0339 0.00235704ZM11.99 2.41512C9.07205 0.628659 4.34462 0.137774 1.96615 0.00235704C1.16667 -0.0427818 0.5 0.566159 0.5 1.33482V15.9984C0.5 16.7033 1.06988 17.291 1.80295 17.3292C3.95095 17.442 8.29557 17.8548 11.2982 19.3669C11.7591 19.5991 12.3056 19.2827 12.3056 18.7827V2.97892C12.3056 2.74932 12.1918 2.53882 11.99 2.41512Z" fill="#047481"/>
</svg>
