<svg width="155" height="176" viewBox="0 0 155 176" fill="none" xmlns="http://www.w3.org/2000/svg">
<path d="M82.7385 0.313711C82.9274 0.113485 83.1905 0 83.4658 0H111.536C111.712 0 111.802 0.209687 111.682 0.337258L48.3924 67.4114C37.4856 78.9704 37.4856 97.0296 48.3924 108.589L111.682 175.663C111.802 175.79 111.712 176 111.536 176H83.4658C83.1905 176 82.9274 175.887 82.7385 175.686L7.77077 96.2355C3.40804 91.6118 3.40803 84.3882 7.77077 79.7645L82.7385 0.313711Z" fill="#16BDCA"/>
<path d="M113.529 22.3382C113.719 22.1232 113.992 22 114.279 22H133.557C133.729 22 133.821 22.2032 133.707 22.3324L84.3528 78.2343C79.6795 83.5275 79.6795 91.4724 84.3528 96.7657L133.707 152.668C133.821 152.797 133.729 153 133.557 153H114.279C113.992 153 113.719 152.877 113.529 152.662L63.0118 95.442C59.0061 90.905 59.0061 84.095 63.0117 79.558L113.529 22.3382Z" fill="#16BDCA"/>
<path d="M141.772 48.3203C141.961 48.1161 142.227 48 142.506 48H154.542C154.717 48 154.807 48.2079 154.689 48.3359L122.34 83.2419C119.853 85.9263 119.853 90.0737 122.34 92.7581L154.689 127.664C154.807 127.792 154.717 128 154.542 128H142.506C142.227 128 141.961 127.884 141.772 127.68L110.039 93.4378C107.196 90.37 107.196 85.63 110.039 82.5622L141.772 48.3203Z" fill="#16BDCA"/>
</svg>
