<svg width="24" height="24" viewBox="0 0 24 24" fill="none" xmlns="http://www.w3.org/2000/svg">
<path d="M16.9998 1.99982C18.3248 2.00378 19.5943 2.53187 20.5312 3.46876C21.4681 4.40566 21.9962 5.67522 22.0002 7.00018V16.9998C21.9962 18.3248 21.4681 19.5943 20.5312 20.5312C19.5943 21.4681 18.3248 21.9962 16.9998 22.0002H7.00018C5.67522 21.9962 4.40566 21.4681 3.46876 20.5312C2.53187 19.5943 2.00378 18.3248 1.99982 16.9998V7.00018C2.00378 5.67522 2.53187 4.40566 3.46876 3.46876C4.40566 2.53187 5.67522 2.00378 7.00018 1.99982H16.9998ZM16.9998 0H7.00018C3.15 0 0 3.15 0 7.00018V16.9998C0 20.85 3.15 24 7.00018 24H16.9998C20.85 24 24 20.85 24 16.9998V7.00018C24 3.15 20.85 0 16.9998 0Z" fill="#31708B"/>
<path d="M18.5 7.00004C18.2033 7.00004 17.9133 6.91206 17.6666 6.74724C17.4199 6.58242 17.2277 6.34814 17.1141 6.07405C17.0006 5.79996 16.9709 5.49836 17.0288 5.20738C17.0867 4.91641 17.2295 4.64913 17.4393 4.43935C17.6491 4.22956 17.9164 4.0867 18.2073 4.02882C18.4983 3.97094 18.7999 4.00065 19.074 4.11418C19.3481 4.22772 19.5824 4.41998 19.7472 4.66665C19.912 4.91333 20 5.20334 20 5.50002C20.0004 5.69712 19.9619 5.89237 19.8867 6.07455C19.8114 6.25673 19.701 6.42226 19.5616 6.56164C19.4222 6.70101 19.2567 6.81149 19.0745 6.88672C18.8923 6.96195 18.6971 7.00046 18.5 7.00004ZM12.0001 7.99969C12.7912 7.99969 13.5647 8.2343 14.2225 8.67385C14.8803 9.1134 15.393 9.73815 15.6958 10.4691C15.9986 11.2 16.0778 12.0044 15.9234 12.7803C15.7691 13.5563 15.3881 14.2691 14.8287 14.8285C14.2692 15.388 13.5564 15.7689 12.7805 15.9233C12.0045 16.0776 11.2002 15.9984 10.4693 15.6957C9.73831 15.3929 9.11356 14.8802 8.67401 14.2223C8.23446 13.5645 7.99985 12.7911 7.99985 11.9999C8.00098 10.9393 8.4228 9.92253 9.17274 9.17259C9.92268 8.42264 10.9395 8.00083 12.0001 7.99969ZM12.0001 5.99985C10.8134 5.99985 9.65332 6.35174 8.66661 7.01104C7.67991 7.67034 6.91086 8.60742 6.45673 9.70379C6.0026 10.8002 5.88378 12.0066 6.11529 13.1705C6.34681 14.3344 6.91826 15.4035 7.75738 16.2426C8.59651 17.0817 9.66562 17.6532 10.8295 17.8847C11.9934 18.1162 13.1998 17.9974 14.2962 17.5433C15.3926 17.0891 16.3297 16.3201 16.989 15.3334C17.6483 14.3467 18.0002 13.1866 18.0002 11.9999C18.0002 10.4086 17.368 8.88246 16.2428 7.75723C15.1175 6.632 13.5914 5.99985 12.0001 5.99985Z" fill="#31708B"/>
</svg>
