<svg width="27" height="27" viewBox="0 0 27 27" fill="none" xmlns="http://www.w3.org/2000/svg">
<path d="M13.5011 1C13.7901 1 14.0747 1.07056 14.3301 1.20554C14.5856 1.34052 14.8043 1.53585 14.9671 1.77455L25.6906 17.5038C25.8314 17.7098 25.9271 17.9431 25.9716 18.1885C26.0161 18.434 26.0083 18.6861 25.9487 18.9283C25.8891 19.1706 25.7791 19.3975 25.6259 19.5944C25.4727 19.7912 25.2797 19.9536 25.0595 20.0708L14.3337 25.7912C14.0768 25.9283 13.7901 26 13.4989 26C13.2077 26 12.9209 25.9283 12.664 25.7912L1.94053 20.073C1.72032 19.9558 1.5273 19.7935 1.37408 19.5966C1.22085 19.3997 1.11087 19.1728 1.05131 18.9306C0.991746 18.6883 0.983945 18.4362 1.02841 18.1908C1.07288 17.9453 1.16862 17.712 1.30938 17.506L12.0351 1.77455C12.1979 1.53585 12.4166 1.34052 12.6721 1.20554C12.9276 1.07056 13.2122 1 13.5011 1ZM13.5011 1V25.9999" stroke="#22A0C8" stroke-width="2" stroke-linecap="round" stroke-linejoin="round"/>
</svg>
