<svg width="48" height="47" viewBox="0 0 48 47" fill="none" xmlns="http://www.w3.org/2000/svg">
<path d="M29.52 33.9C29.52 42.48 27.21 46.77 22.59 46.77C19.73 46.77 16.4667 44.9733 12.8 41.38C16.2467 37.7867 18.8133 33.6067 20.5 28.84C15.66 31.1133 11.5167 32.25 8.07 32.25C3.15667 32.25 0.7 29.9033 0.7 25.21C0.7 22.79 1.50667 20.0767 3.12 17.07C8.25333 19.3433 13.0933 20.48 17.64 20.48C12.5067 14.76 9.94 10.0667 9.94 6.4C9.94 2.22 13.0567 0.129994 19.29 0.129994C20.6833 0.129994 22.04 0.239995 23.36 0.459996C23.0667 2.73333 22.92 4.97 22.92 7.17C22.92 9.37 23.5433 12.0833 24.79 15.31C29.41 7.39 33.6633 3.43 37.55 3.43C38.87 3.43 40.3367 4.49333 41.95 6.62C43.6367 8.67333 44.81 11.3867 45.47 14.76C39.8967 15.7867 35.2767 17.6567 31.61 20.37C41.95 23.0833 47.12 26.3467 47.12 30.16C47.12 31.5533 46.4967 33.0933 45.25 34.78C44.0767 36.4667 42.3533 37.9333 40.08 39.18C34.2133 33.1667 30.62 29.6467 29.3 28.62C29.4467 29.72 29.52 31.48 29.52 33.9Z" fill="#0EBDB8"/>
</svg>
